<svg width="75" height="16" viewBox="0 0 75 16" fill="none" xmlns="http://www.w3.org/2000/svg">
<path d="M23.8203 9.54688V14H22.3203V2.625H26.5156C27.7604 2.625 28.7344 2.94271 29.4375 3.57812C30.1458 4.21354 30.5 5.05469 30.5 6.10156C30.5 7.20573 30.1536 8.05729 29.4609 8.65625C28.7734 9.25 27.7865 9.54688 26.5 9.54688H23.8203ZM23.8203 8.32031H26.5156C27.3177 8.32031 27.9323 8.13281 28.3594 7.75781C28.7865 7.3776 29 6.83073 29 6.11719C29 5.4401 28.7865 4.89844 28.3594 4.49219C27.9323 4.08594 27.3464 3.875 26.6016 3.85938H23.8203V8.32031ZM31.6953 9.69531C31.6953 8.86719 31.8568 8.1224 32.1797 7.46094C32.5078 6.79948 32.9609 6.28906 33.5391 5.92969C34.1224 5.57031 34.7865 5.39062 35.5312 5.39062C36.6823 5.39062 37.612 5.78906 38.3203 6.58594C39.0339 7.38281 39.3906 8.44271 39.3906 9.76562V9.86719C39.3906 10.6901 39.2318 11.4297 38.9141 12.0859C38.6016 12.737 38.151 13.2448 37.5625 13.6094C36.9792 13.974 36.3073 14.1562 35.5469 14.1562C34.401 14.1562 33.4714 13.7578 32.7578 12.9609C32.0495 12.1641 31.6953 11.1094 31.6953 9.79688V9.69531ZM33.1484 9.86719C33.1484 10.8047 33.3646 11.5573 33.7969 12.125C34.2344 12.6927 34.8177 12.9766 35.5469 12.9766C36.2812 12.9766 36.8646 12.6901 37.2969 12.1172C37.7292 11.5391 37.9453 10.7318 37.9453 9.69531C37.9453 8.76823 37.724 8.01823 37.2812 7.44531C36.8438 6.86719 36.2604 6.57812 35.5312 6.57812C34.8177 6.57812 34.2422 6.86198 33.8047 7.42969C33.3672 7.9974 33.1484 8.8099 33.1484 9.86719ZM44.5938 12.9766C45.1094 12.9766 45.5599 12.8203 45.9453 12.5078C46.3307 12.1953 46.5443 11.8047 46.5859 11.3359H47.9531C47.9271 11.8203 47.7604 12.2812 47.4531 12.7188C47.1458 13.1562 46.7344 13.5052 46.2188 13.7656C45.7083 14.026 45.1667 14.1562 44.5938 14.1562C43.4427 14.1562 42.526 13.7734 41.8438 13.0078C41.1667 12.237 40.8281 11.1849 40.8281 9.85156V9.60938C40.8281 8.78646 40.9792 8.05469 41.2812 7.41406C41.5833 6.77344 42.0156 6.27604 42.5781 5.92188C43.1458 5.56771 43.8151 5.39062 44.5859 5.39062C45.5339 5.39062 46.3203 5.67448 46.9453 6.24219C47.5755 6.8099 47.9115 7.54688 47.9531 8.45312H46.5859C46.5443 7.90625 46.3359 7.45833 45.9609 7.10938C45.5911 6.75521 45.1328 6.57812 44.5859 6.57812C43.8516 6.57812 43.2812 6.84375 42.875 7.375C42.474 7.90104 42.2734 8.66406 42.2734 9.66406V9.9375C42.2734 10.9115 42.474 11.6615 42.875 12.1875C43.276 12.7135 43.849 12.9766 44.5938 12.9766ZM52.9688 12.9766C53.4844 12.9766 53.9349 12.8203 54.3203 12.5078C54.7057 12.1953 54.9193 11.8047 54.9609 11.3359H56.3281C56.3021 11.8203 56.1354 12.2812 55.8281 12.7188C55.5208 13.1562 55.1094 13.5052 54.5938 13.7656C54.0833 14.026 53.5417 14.1562 52.9688 14.1562C51.8177 14.1562 50.901 13.7734 50.2188 13.0078C49.5417 12.237 49.2031 11.1849 49.2031 9.85156V9.60938C49.2031 8.78646 49.3542 8.05469 49.6562 7.41406C49.9583 6.77344 50.3906 6.27604 50.9531 5.92188C51.5208 5.56771 52.1901 5.39062 52.9609 5.39062C53.9089 5.39062 54.6953 5.67448 55.3203 6.24219C55.9505 6.8099 56.2865 7.54688 56.3281 8.45312H54.9609C54.9193 7.90625 54.7109 7.45833 54.3359 7.10938C53.9661 6.75521 53.5078 6.57812 52.9609 6.57812C52.2266 6.57812 51.6562 6.84375 51.25 7.375C50.849 7.90104 50.6484 8.66406 50.6484 9.66406V9.9375C50.6484 10.9115 50.849 11.6615 51.25 12.1875C51.651 12.7135 52.224 12.9766 52.9688 12.9766ZM63.4219 5.54688H64.8672V14H63.4219V7.83594L59.5234 14H58.0781V5.54688H59.5234V11.7188L63.4219 5.54688ZM73.6484 5.54688V14H72.1953V10.7109H70.0156L68.0234 14H66.4609L68.5859 10.4922C68.0443 10.2943 67.6276 9.98958 67.3359 9.57812C67.0495 9.16146 66.9062 8.67708 66.9062 8.125C66.9062 7.35417 67.1953 6.73438 67.7734 6.26562C68.3516 5.79167 69.125 5.55208 70.0938 5.54688H73.6484ZM68.3594 8.14062C68.3594 8.55208 68.5 8.88542 68.7812 9.14062C69.0625 9.39062 69.4349 9.51823 69.8984 9.52344H72.1953V6.71875H70.1172C69.5807 6.71875 69.1536 6.85156 68.8359 7.11719C68.5182 7.3776 68.3594 7.71875 68.3594 8.14062Z" fill="#061B28"/>
<path d="M11.0962 11.3137L6.5 16L1.90378 11.3137C0.994747 10.3868 0.37569 9.20592 0.124893 7.92033C-0.125905 6.63474 0.00282161 5.30219 0.494793 4.0912C0.986765 2.8802 1.81989 1.84514 2.8888 1.11692C3.95772 0.388689 5.21443 0 6.5 0C7.78557 0 9.04228 0.388689 10.1112 1.11692C11.1801 1.84514 12.0132 2.8802 12.5052 4.0912C12.9972 5.30219 13.1259 6.63474 12.8751 7.92033C12.6243 9.20592 12.0053 10.3868 11.0962 11.3137ZM6.5 8.10012C6.88309 8.10012 7.25049 7.94495 7.52138 7.66876C7.79226 7.39256 7.94444 7.01796 7.94444 6.62736C7.94444 6.23676 7.79226 5.86216 7.52138 5.58596C7.25049 5.30977 6.88309 5.1546 6.5 5.1546C6.11691 5.1546 5.74951 5.30977 5.47862 5.58596C5.20774 5.86216 5.05556 6.23676 5.05556 6.62736C5.05556 7.01796 5.20774 7.39256 5.47862 7.66876C5.74951 7.94495 6.11691 8.10012 6.5 8.10012Z" fill="#EC5118"/>
</svg>
