<svg width="92" height="16" viewBox="0 0 92 16" fill="none" xmlns="http://www.w3.org/2000/svg">
<path d="M30.1797 3.85938H26.5234V14H25.0312V3.85938H21.3828V2.625H30.1797V3.85938ZM35.9688 14C35.8854 13.8333 35.8177 13.5365 35.7656 13.1094C35.0938 13.8073 34.2917 14.1562 33.3594 14.1562C32.526 14.1562 31.8411 13.9219 31.3047 13.4531C30.7734 12.9792 30.5078 12.3802 30.5078 11.6562C30.5078 10.776 30.8411 10.0938 31.5078 9.60938C32.1797 9.11979 33.1224 8.875 34.3359 8.875H35.7422V8.21094C35.7422 7.70573 35.5911 7.30469 35.2891 7.00781C34.987 6.70573 34.5417 6.55469 33.9531 6.55469C33.4375 6.55469 33.0052 6.6849 32.6562 6.94531C32.3073 7.20573 32.1328 7.52083 32.1328 7.89062H30.6797C30.6797 7.46875 30.8281 7.0625 31.125 6.67188C31.4271 6.27604 31.8333 5.96354 32.3438 5.73438C32.8594 5.50521 33.4245 5.39062 34.0391 5.39062C35.013 5.39062 35.776 5.63542 36.3281 6.125C36.8802 6.60938 37.1667 7.27865 37.1875 8.13281V12.0234C37.1875 12.7995 37.2865 13.4167 37.4844 13.875V14H35.9688ZM33.5703 12.8984C34.0234 12.8984 34.4531 12.7812 34.8594 12.5469C35.2656 12.3125 35.5599 12.0078 35.7422 11.6328V9.89844H34.6094C32.8385 9.89844 31.9531 10.4167 31.9531 11.4531C31.9531 11.9062 32.1042 12.2604 32.4062 12.5156C32.7083 12.7708 33.0964 12.8984 33.5703 12.8984ZM46.3594 14H44.9141V10.3906H41.0312V14H39.5781V5.54688H41.0312V9.21094H44.9141V5.54688H46.3594V14ZM53.3359 7.85938C53.3359 7.46354 53.1849 7.15104 52.8828 6.92188C52.5807 6.6875 52.1667 6.57031 51.6406 6.57031C51.1302 6.57031 50.7031 6.70312 50.3594 6.96875C50.0208 7.23438 49.8516 7.54688 49.8516 7.90625H48.4141C48.4141 7.17188 48.7214 6.57031 49.3359 6.10156C49.9505 5.63281 50.7188 5.39844 51.6406 5.39844C52.6302 5.39844 53.401 5.61198 53.9531 6.03906C54.5052 6.46094 54.7812 7.0651 54.7812 7.85156C54.7812 8.23177 54.6667 8.58073 54.4375 8.89844C54.2083 9.21615 53.8828 9.46875 53.4609 9.65625C54.4453 9.98958 54.9375 10.6458 54.9375 11.625C54.9375 12.401 54.638 13.0156 54.0391 13.4688C53.4401 13.9219 52.6406 14.1484 51.6406 14.1484C50.6667 14.1484 49.862 13.9115 49.2266 13.4375C48.5964 12.9583 48.2812 12.3125 48.2812 11.5H49.7188C49.7188 11.9115 49.901 12.2656 50.2656 12.5625C50.6354 12.8542 51.0938 13 51.6406 13C52.1927 13 52.638 12.8724 52.9766 12.6172C53.3151 12.362 53.4844 12.0312 53.4844 11.625C53.4844 11.151 53.3411 10.8125 53.0547 10.6094C52.7734 10.401 52.3333 10.2969 51.7344 10.2969H50.2891V9.07812H51.8594C52.8438 9.05208 53.3359 8.64583 53.3359 7.85938ZM62.0312 14C61.9479 13.8333 61.8802 13.5365 61.8281 13.1094C61.1562 13.8073 60.3542 14.1562 59.4219 14.1562C58.5885 14.1562 57.9036 13.9219 57.3672 13.4531C56.8359 12.9792 56.5703 12.3802 56.5703 11.6562C56.5703 10.776 56.9036 10.0938 57.5703 9.60938C58.2422 9.11979 59.1849 8.875 60.3984 8.875H61.8047V8.21094C61.8047 7.70573 61.6536 7.30469 61.3516 7.00781C61.0495 6.70573 60.6042 6.55469 60.0156 6.55469C59.5 6.55469 59.0677 6.6849 58.7188 6.94531C58.3698 7.20573 58.1953 7.52083 58.1953 7.89062H56.7422C56.7422 7.46875 56.8906 7.0625 57.1875 6.67188C57.4896 6.27604 57.8958 5.96354 58.4062 5.73438C58.9219 5.50521 59.487 5.39062 60.1016 5.39062C61.0755 5.39062 61.8385 5.63542 62.3906 6.125C62.9427 6.60938 63.2292 7.27865 63.25 8.13281V12.0234C63.25 12.7995 63.349 13.4167 63.5469 13.875V14H62.0312ZM59.6328 12.8984C60.0859 12.8984 60.5156 12.7812 60.9219 12.5469C61.3281 12.3125 61.6224 12.0078 61.8047 11.6328V9.89844H60.6719C58.901 9.89844 58.0156 10.4167 58.0156 11.4531C58.0156 11.9062 58.1667 12.2604 58.4688 12.5156C58.7708 12.7708 59.1589 12.8984 59.6328 12.8984ZM72.4219 14H70.9766V10.3906H67.0938V14H65.6406V5.54688H67.0938V9.21094H70.9766V5.54688H72.4219V14ZM80.2188 5.54688H81.6641V14H80.2188V7.83594L76.3203 14H74.875V5.54688H76.3203V11.7188L80.2188 5.54688ZM90.4453 5.54688V14H88.9922V10.7109H86.8125L84.8203 14H83.2578L85.3828 10.4922C84.8411 10.2943 84.4245 9.98958 84.1328 9.57812C83.8464 9.16146 83.7031 8.67708 83.7031 8.125C83.7031 7.35417 83.9922 6.73438 84.5703 6.26562C85.1484 5.79167 85.9219 5.55208 86.8906 5.54688H90.4453ZM85.1562 8.14062C85.1562 8.55208 85.2969 8.88542 85.5781 9.14062C85.8594 9.39062 86.2318 9.51823 86.6953 9.52344H88.9922V6.71875H86.9141C86.3776 6.71875 85.9505 6.85156 85.6328 7.11719C85.3151 7.3776 85.1562 7.71875 85.1562 8.14062Z" fill="#061B28"/>
<path d="M11.0962 11.3137L6.5 16L1.90378 11.3137C0.994747 10.3868 0.37569 9.20592 0.124893 7.92033C-0.125905 6.63474 0.00282161 5.30219 0.494793 4.0912C0.986765 2.8802 1.81989 1.84514 2.8888 1.11692C3.95772 0.388689 5.21443 0 6.5 0C7.78557 0 9.04228 0.388689 10.1112 1.11692C11.1801 1.84514 12.0132 2.8802 12.5052 4.0912C12.9972 5.30219 13.1259 6.63474 12.8751 7.92033C12.6243 9.20592 12.0053 10.3868 11.0962 11.3137ZM6.5 8.10012C6.88309 8.10012 7.25049 7.94495 7.52138 7.66876C7.79226 7.39256 7.94444 7.01796 7.94444 6.62736C7.94444 6.23676 7.79226 5.86216 7.52138 5.58596C7.25049 5.30977 6.88309 5.1546 6.5 5.1546C6.11691 5.1546 5.74951 5.30977 5.47862 5.58596C5.20774 5.86216 5.05556 6.23676 5.05556 6.62736C5.05556 7.01796 5.20774 7.39256 5.47862 7.66876C5.74951 7.94495 6.11691 8.10012 6.5 8.10012Z" fill="#EC5118"/>
</svg>
